<?xml version="1.0" standalone="no"?>
<!DOCTYPE svg PUBLIC "-//W3C//DTD SVG 20010904//EN"
 "http://www.w3.org/TR/2001/REC-SVG-20010904/DTD/svg10.dtd">
<svg version="1.0" xmlns="http://www.w3.org/2000/svg"
 width="732.000000pt" height="335.000000pt" viewBox="0 0 732.000000 335.000000"
 preserveAspectRatio="xMidYMid meet">

<g transform="translate(0.000000,335.000000) scale(0.100000,-0.100000)"
fill="#000000" stroke="none">
<path d="M1612 3309 c-57 -11 -73 -23 -247 -198 l-150 -151 179 -179 179 -179
76 0 c168 2 268 -102 259 -268 l-3 -64 175 -175 175 -175 56 6 c240 27 374
-266 198 -433 -97 -92 -256 -87 -352 12 -52 54 -71 109 -65 195 l5 71 -158
161 -159 161 0 -436 c0 -240 4 -437 8 -437 19 0 86 -76 104 -118 77 -173 -63
-366 -252 -349 -105 9 -182 71 -216 172 -37 107 13 241 109 291 l27 15 0 447
-1 447 -39 25 c-85 52 -134 185 -101 273 9 22 -6 39 -172 205 l-182 182 -502
-502 c-294 -295 -507 -515 -513 -533 -16 -43 -14 -115 5 -161 11 -28 208 -232
733 -757 394 -395 733 -728 752 -742 48 -33 108 -45 167 -33 46 10 71 33 790
751 409 408 750 756 759 775 20 43 20 118 -1 168 -11 28 -208 232 -733 757
-394 395 -733 728 -752 742 -45 31 -103 43 -158 34z"/>
<path d="M5840 2904 c-452 -57 -818 -312 -1017 -709 -114 -225 -157 -498 -119
-753 69 -464 396 -864 834 -1018 48 -17 55 -17 80 -4 l27 16 3 135 3 135 -118
1 c-190 1 -245 31 -319 174 -45 87 -69 118 -148 185 -42 37 -45 51 -11 60 71
18 155 -32 235 -138 90 -119 189 -154 313 -110 46 16 50 21 67 70 9 30 27 67
39 82 27 37 26 40 -3 40 -101 0 -290 74 -374 145 -112 97 -172 251 -174 451
-2 146 22 230 95 331 29 41 29 43 17 94 -15 61 -8 185 13 244 12 34 19 40 46
43 44 5 119 -21 230 -79 l94 -49 81 17 c112 24 360 24 474 0 l82 -18 61 36
c100 58 178 88 239 89 l55 1 17 -65 c20 -77 22 -164 7 -226 -11 -43 -10 -47
18 -87 73 -102 97 -185 95 -333 -1 -119 -12 -171 -54 -279 -43 -108 -118 -185
-238 -243 -79 -38 -199 -72 -256 -72 -30 0 -30 -1 1 -46 41 -61 47 -99 54
-347 6 -221 7 -240 25 -253 29 -21 48 -18 144 22 395 163 682 513 769 936 24
116 24 382 0 495 -108 509 -490 896 -992 1004 -88 19 -320 32 -395 23z"/>
</g>
</svg>
