<?xml version="1.0" standalone="no"?>
<!DOCTYPE svg PUBLIC "-//W3C//DTD SVG 20010904//EN"
 "http://www.w3.org/TR/2001/REC-SVG-20010904/DTD/svg10.dtd">
<svg version="1.0" xmlns="http://www.w3.org/2000/svg"
 width="650.000000pt" height="341.000000pt" viewBox="0 0 650.000000 341.000000"
 preserveAspectRatio="xMidYMid meet">

<g transform="translate(0.000000,341.000000) scale(0.100000,-0.100000)"
fill="#000000" stroke="none">
<path d="M3784 3131 c-48 -21 -69 -93 -43 -144 7 -12 38 -58 69 -102 37 -51
66 -105 80 -150 31 -95 75 -191 107 -233 l26 -35 -22 -92 c-45 -188 -20 -358
65 -444 37 -37 48 -42 71 -36 42 10 52 25 64 96 16 98 18 100 46 44 42 -83 71
-121 156 -197 l81 -73 -46 57 c-71 87 -162 246 -209 367 -8 20 -12 21 -25 10
-28 -23 -54 -87 -65 -164 -13 -82 -24 -92 -58 -48 -60 76 -73 261 -28 401 28
86 27 103 -8 132 -25 21 -64 104 -101 213 -26 76 -48 119 -99 189 -81 114 -86
158 -17 158 24 0 141 -57 182 -88 28 -22 49 -28 111 -33 128 -9 259 -81 408
-224 131 -125 170 -187 293 -460 73 -163 104 -222 129 -241 8 -6 50 -23 94
-38 94 -32 295 -159 295 -186 0 -4 -39 -10 -87 -13 -49 -3 -110 -13 -136 -22
-44 -16 -48 -20 -42 -42 15 -61 87 -124 215 -188 41 -21 101 -57 133 -82 32
-24 54 -35 48 -25 -21 40 -159 170 -211 199 -65 37 -110 80 -89 87 30 9 107
25 172 37 37 6 70 15 73 20 8 14 -101 118 -183 176 -40 27 -111 68 -158 89
l-86 39 -56 115 c-31 63 -77 163 -103 221 -90 203 -223 360 -416 488 -110 74
-174 99 -279 110 -44 5 -70 14 -96 33 -80 61 -206 100 -255 79z"/>
<path d="M1421 2890 c-106 -23 -182 -86 -199 -167 -17 -78 15 -162 72 -193 14
-7 26 -16 26 -19 0 -4 -16 -15 -36 -26 -20 -11 -49 -37 -63 -59 -22 -34 -26
-50 -26 -115 1 -115 40 -178 140 -222 96 -42 302 -36 397 12 96 49 145 194 99
294 -18 41 -82 105 -103 105 -7 0 6 19 29 43 54 56 63 76 63 137 0 94 -57 166
-152 195 -62 18 -192 26 -247 15z m163 -156 c35 -35 36 -92 2 -131 -33 -38
-96 -38 -134 1 -37 37 -36 100 2 133 38 33 95 31 130 -3z m-1 -315 c15 -11 32
-38 38 -60 36 -120 -93 -219 -172 -131 -16 17 -31 43 -35 57 -10 41 5 96 36
127 36 35 94 39 133 7z"/>
<path d="M2581 2889 c-67 -11 -146 -54 -178 -96 -39 -51 -64 -146 -70 -263
-12 -237 46 -383 177 -444 36 -17 65 -21 145 -21 130 0 175 14 235 74 62 62
89 143 97 288 10 179 -25 318 -98 391 -44 45 -74 59 -150 71 -72 12 -83 12
-158 0z m128 -155 c40 -29 54 -79 59 -219 6 -159 -8 -236 -48 -277 -50 -49
-117 -31 -148 41 -21 49 -29 276 -12 355 20 99 87 143 149 100z"/>
<path d="M4096 2818 c12 -12 28 -36 36 -52 l15 -30 13 23 c10 20 9 28 -7 50
-12 15 -32 27 -49 29 l-29 4 21 -24z"/>
<path d="M1970 2180 l0 -110 120 0 120 0 0 110 0 110 -120 0 -120 0 0 -110z"/>
<path d="M1265 1458 c-12 -39 -51 -500 -60 -703 -3 -77 -8 -168 -11 -203 l-5
-62 74 0 73 0 13 308 c15 374 22 476 31 465 4 -4 31 -82 60 -173 28 -91 83
-263 121 -383 l70 -217 62 0 62 0 119 378 c66 207 123 383 127 391 8 18 16
-27 29 -184 10 -122 30 -479 30 -547 l0 -38 81 0 81 0 -6 127 c-15 291 -59
804 -71 841 -3 8 -32 12 -99 12 l-94 0 -117 -352 c-65 -194 -121 -356 -124
-361 -4 -4 -60 155 -125 353 l-117 360 -100 0 c-71 0 -101 -4 -104 -12z"/>
<path d="M2313 1198 c16 -44 198 -622 208 -661 6 -26 9 -61 5 -79 -15 -78
-100 -134 -190 -126 l-46 3 0 -42 c0 -40 2 -43 38 -52 59 -17 113 -13 167 13
178 83 325 382 424 867 l18 89 -78 0 -79 0 0 -30 c0 -84 -98 -491 -134 -558
l-15 -27 -1 35 c0 41 -25 135 -105 393 l-59 187 -79 0 c-59 0 -78 -3 -74 -12z"/>
</g>
</svg>
