<?xml version="1.0" standalone="no"?>
<!DOCTYPE svg PUBLIC "-//W3C//DTD SVG 20010904//EN"
 "http://www.w3.org/TR/2001/REC-SVG-20010904/DTD/svg10.dtd">
<svg version="1.0" xmlns="http://www.w3.org/2000/svg"
 width="5000.000000pt" height="2700.000000pt" viewBox="0 0 5000.000000 2700.000000"
 preserveAspectRatio="xMidYMid meet">

<g transform="translate(0.000000,2700.000000) scale(0.100000,-0.100000)"
fill="#000000" stroke="none">
<path d="M31710 25793 c0 -4 5 -24 10 -43 31 -106 210 -894 210 -926 0 -3 -8
-3 -17 0 -10 3 -43 8 -73 11 -30 4 -143 19 -250 35 -1161 171 -2474 307 -3710
385 -1457 91 -3141 111 -4630 55 -4833 -183 -9402 -1118 -13144 -2690 -859
-361 -1752 -796 -2496 -1218 -1159 -656 -2142 -1354 -3010 -2136 -194 -175
-674 -655 -841 -841 -1138 -1270 -1806 -2575 -2029 -3965 -48 -302 -70 -596
-71 -940 -1 -526 52 -980 176 -1503 2 -9 7 -23 11 -30 5 -7 1 -6 -10 2 -10 8
-118 166 -241 350 -303 457 -469 728 -711 1166 -73 132 -142 256 -154 275
l-21 35 5 -370 c4 -387 16 -553 61 -880 207 -1491 914 -2954 2084 -4315 212
-246 322 -363 645 -686 337 -336 585 -563 926 -848 3603 -3009 9412 -5096
16015 -5756 2400 -239 4895 -289 7320 -145 6234 371 11949 2001 15971 4555
864 549 1655 1148 2349 1779 222 202 710 691 897 901 1027 1150 1698 2309
2053 3545 308 1076 356 2182 140 3263 -165 824 -477 1631 -933 2412 -1362
2333 -3979 4415 -7552 6007 -2505 1117 -5515 1978 -8600 2463 -179 28 -337 53
-352 56 -16 3 -28 2 -28 -3z m-6065 -2708 c174 -46 316 -186 372 -367 37 -121
37 -125 -251 -1598 -146 -751 -268 -1377 -272 -1392 l-5 -26 1178 -5 c1157 -5
1295 -8 1668 -42 1209 -111 2065 -430 2615 -975 397 -393 639 -928 711 -1570
7 -63 15 -106 17 -95 2 11 104 536 227 1167 242 1245 234 1212 323 1324 49 62
154 134 242 166 l65 23 2775 3 c2799 3 3094 0 3460 -33 1170 -107 2104 -457
2795 -1049 703 -602 1134 -1426 1259 -2411 37 -289 48 -729 26 -1045 -81
-1183 -436 -2274 -1028 -3169 -476 -718 -1172 -1403 -1872 -1843 -810 -508
-1674 -772 -2850 -872 -425 -37 -509 -39 -1777 -43 l-1282 -5 -11 -51 c-5 -29
-138 -711 -294 -1515 -263 -1355 -287 -1469 -320 -1538 -62 -130 -180 -233
-321 -277 l-70 -22 -1480 0 c-1408 0 -1483 1 -1540 18 -98 30 -171 75 -238
146 -104 112 -147 216 -147 363 0 60 61 390 276 1495 151 780 278 1428 281
1441 l6 24 -52 -26 c-113 -58 -47 -56 -1646 -56 -1283 0 -1478 2 -1530 15
-240 61 -405 270 -405 512 0 51 149 836 555 2924 305 1570 563 2906 574 2969
60 348 46 665 -32 738 -54 50 -215 107 -385 136 -212 37 -272 39 -1328 43
l-1052 4 -5 -23 c-3 -13 -308 -1577 -677 -3477 -369 -1899 -679 -3475 -690
-3502 -59 -157 -206 -285 -371 -324 -95 -22 -2921 -22 -3017 0 -181 43 -330
182 -384 360 -42 136 -44 125 205 1400 125 638 229 1171 232 1185 4 15 -8 3
-28 -31 -390 -637 -978 -1278 -1608 -1754 -501 -378 -1072 -669 -1659 -847
-502 -151 -1136 -258 -1765 -298 -93 -5 -197 -13 -230 -16 -33 -4 -638 -9
-1345 -13 l-1284 -6 -277 -1425 c-335 -1724 -310 -1605 -350 -1686 -63 -128
-204 -239 -349 -275 -45 -12 -314 -14 -1535 -14 l-1480 0 -60 22 c-95 34 -155
72 -220 138 -103 104 -164 264 -152 400 8 82 2492 12863 2517 12946 38 127
143 250 263 309 130 64 -70 60 2982 60 1629 0 2871 -4 3000 -10 1494 -66 2611
-484 3400 -1275 508 -509 844 -1150 996 -1900 l12 -60 9 40 c4 22 278 1429
608 3127 330 1698 608 3110 619 3138 59 156 196 282 351 324 85 23 2968 23
3055 1z"/>
<path d="M21492 16172 c-684 -3518 -1243 -6400 -1242 -6404 0 -5 621 -8 1380
-8 1096 0 1382 3 1385 13 3 6 320 1634 705 3617 385 1983 705 3629 711 3658
l11 53 1301 -4 c1416 -4 1393 -3 1686 -63 227 -45 380 -105 517 -203 150 -105
242 -270 285 -511 22 -121 17 -472 -9 -650 -17 -112 -1114 -5788 -1139 -5888
l-5 -22 1408 2 1408 3 532 2740 c669 3442 650 3344 674 3506 146 1000 -20
1759 -494 2257 -456 479 -1258 769 -2381 862 -364 30 -514 33 -1915 39 l-1466
6 328 1680 c179 924 327 1688 327 1698 1 16 -71 17 -1381 17 l-1383 0 -1243
-6398z"/>
<path d="M10855 19158 c-5 -13 -2470 -12691 -2482 -12761 l-6 -37 1395 0 1394
0 330 1698 330 1697 1464 6 c1456 6 1574 9 1990 44 1140 99 1962 359 2708 856
311 207 551 408 868 724 329 329 505 540 729 875 550 824 852 1732 957 2870
18 201 15 701 -6 890 -79 727 -301 1292 -705 1795 -78 97 -289 313 -391 400
-585 497 -1361 797 -2341 904 -406 45 -352 44 -3352 48 -2346 3 -2878 1 -2882
-9z m4970 -2041 c387 -44 663 -105 900 -197 522 -205 781 -526 876 -1085 27
-156 36 -490 20 -687 -63 -754 -291 -1535 -599 -2041 -151 -249 -367 -502
-562 -657 -430 -343 -1003 -544 -1790 -630 -262 -28 -428 -32 -1419 -37
l-1044 -5 6 24 c3 12 233 1195 511 2628 279 1433 511 2629 517 2658 l11 53
1211 -4 c1059 -3 1231 -6 1362 -20z"/>
<path d="M13681 16558 c-12 -59 -805 -4142 -816 -4200 l-7 -38 688 0 c379 0
754 5 834 10 834 58 1416 246 1802 584 433 378 746 1092 877 2001 77 534 40
963 -105 1197 -130 211 -447 362 -914 437 -329 53 -351 54 -1382 58 l-966 4
-11 -53z"/>
<path d="M32635 19148 c-3 -13 -561 -2883 -1240 -6378 -679 -3495 -1237 -6367
-1241 -6383 l-6 -27 1395 0 1395 0 5 23 c3 12 148 753 322 1647 173 894 320
1649 326 1678 l10 52 1287 0 c708 0 1409 5 1557 10 1490 54 2447 312 3320 893
525 350 1040 842 1435 1372 635 852 989 1822 1112 3050 20 202 17 793 -5 975
-26 209 -52 355 -92 517 -279 1123 -1065 1933 -2250 2316 -421 136 -805 206
-1415 258 -97 9 -951 13 -3022 16 l-2887 4 -6 -23z m4793 -2018 c545 -39 980
-141 1282 -302 384 -204 600 -520 675 -988 66 -414 20 -984 -130 -1594 -229
-934 -635 -1577 -1230 -1951 -379 -239 -912 -402 -1530 -470 -317 -34 -425
-37 -1452 -42 -994 -5 -1043 -4 -1043 13 0 9 228 1188 506 2618 278 1431 510
2629 516 2664 l11 62 1124 0 c675 0 1183 -4 1271 -10z"/>
<path d="M35061 14478 c-228 -1173 -416 -2139 -419 -2146 -8 -22 1508 -11
1713 12 838 94 1345 291 1706 663 394 406 666 1079 790 1954 26 186 37 576 19
716 -37 301 -129 490 -295 608 -173 124 -444 217 -780 270 -300 47 -324 48
-1345 52 l-975 4 -414 -2133z"/>
</g>
</svg>
